Simulation
nRows=20
nColumns=15
endheader
time  TH_x TH_y TH_z SC_y  SC_z  SC_x  AC_y  AC_z  AC_x  GH_y  GH_z  GH_yy  EL_x  PS_y
0.0  0.000000  0.000000  0.000000  -4.846526498678908  22.42377513313716  57.95699933328576  -40.88323694210264  -17.840047091191103  -55.49244404845359  -2.248328491981514  26.794819035252488  45.240995225908826  21.463582495813068  0.000000
0.031  0.000000  0.000000  0.000000  -9.731200845108292  19.405910331574436  55.49317198850027  -8.312139207533596  -31.747624747906794  -62.35107474185599  25.47331933414475  22.977717949272627  11.894435471005663  21.85190277866305  0.000000
0.062  0.000000  0.000000  0.000000  -16.883057021440248  11.515153324495657  54.421628028274924  23.506004760397886  -35.0897585775201  -59.36531555194128  49.051081456521665  21.43605346749989  -13.343678288118072  22.935231707969837  0.000000
0.093  0.000000  0.000000  0.000000  -22.09410251748575  1.0665692713890007  53.95675934812647  29.793188797495137  -22.55390098860599  -57.02654840745149  52.5612829790931  15.57258384751908  -14.306391471470205  23.57516432809536  0.000000
0.124  0.000000  0.000000  0.000000  -24.160273460246152  -3.2376908781208  51.67538083150695  30.109092347718207  -17.547445667708914  -52.10506585772487  47.59293435631525  11.871972887014477  -10.257197086745338  22.183317932497207  0.000000
0.155  0.000000  0.000000  0.000000  -25.543584031204528  -2.969374959107777  47.63827073349189  35.830075842241754  -21.032277403645928  -45.19769743873308  41.432007353887734  11.81313400150069  -5.735554525960238  21.72013807830596  0.000000
0.186  0.000000  0.000000  0.000000  -25.882516909428652  -2.0179120089975116  43.92617176097525  37.00826422168139  -20.85426418289466  -39.212539427121115  35.6157167514685  10.880735824790293  0.026723076344313864  22.09476826501082  0.000000
0.217  0.000000  0.000000  0.000000  -26.261808965431808  -2.2312111134302133  39.99667171698856  37.04011037292063  -18.557525285005063  -35.00448753846158  35.83398513326746  10.541851714520817  -1.0342839102555859  21.99107759747116  0.000000
0.248  0.000000  0.000000  0.000000  -26.571612295568528  -1.6671344204627911  35.57384957573392  39.17604746370021  -17.099614432956304  -31.546562384387844  41.0754423419266  11.552430847325777  -7.161307237991467  21.888958942604383  0.000000
0.279  0.000000  0.000000  0.000000  -26.760452952530837  -0.9229899919867502  31.68324125335081  40.417269792418324  -15.474693369510442  -28.615554466916873  43.622853943961225  12.54594516729938  -10.285281026601291  21.934841269788595  0.000000
0.31  0.000000  0.000000  0.000000  -26.9347969885347  -0.67261436267043  28.37665512628155  40.913732115391284  -13.686478163948635  -25.97748516323499  43.81441286995581  13.276571485627029  -11.384876747500163  21.638899024397052  0.000000
0.34099999999999997  0.000000  0.000000  0.000000  -27.16481479566947  -0.604627107731106  25.456141794283074  41.68763418437059  -11.999719240308728  -23.61289507890006  43.33055102369291  14.071725473250664  -11.888396266396018  21.39308928415329  0.000000
0.372  0.000000  0.000000  0.000000  -27.360769752571354  -0.5221212936774567  22.90482301894175  42.40779946788146  -10.455361905101173  -21.467820045591196  42.41121821564569  14.885172708265301  -11.975192304632195  21.226996246337094  0.000000
0.403  0.000000  0.000000  0.000000  -27.53614874483249  -0.4431995522002048  20.698257931056492  42.98453802192162  -9.032807496937778  -19.512993389983773  41.13655619637886  15.717819442524117  -11.742097994306842  21.126335713618573  0.000000
0.434  0.000000  0.000000  0.000000  -27.686081449639882  -0.40804252299763344  18.786911781953627  43.46780936385122  -7.707356766778699  -17.671766736671977  39.42871271216243  16.52466214460248  -11.115613524277675  21.099990985973694  0.000000
0.46499999999999997  0.000000  0.000000  0.000000  -27.841811554379778  -0.4751085881836113  17.144431551156945  43.879825420688206  -6.449120953224295  -15.924932325224868  37.31960042451989  17.322036975418676  -10.111173603209098  21.158077962112774  0.000000
0.496  0.000000  0.000000  0.000000  -27.974484222029748  -0.6519025745808769  15.751677244626643  44.222732626530735  -5.249413304251768  -14.203464820058437  34.793685091751485  18.059094176717633  -8.672045889567459  21.26130064878061  0.000000
0.527  0.000000  0.000000  0.000000  -28.103556729595383  -0.92910511580053  14.565034701815426  44.47687478080218  -4.09733425644288  -12.512213624566936  32.09873822490877  18.79203686374957  -7.0124086669988275  21.395614090808763  0.000000
0.558  0.000000  0.000000  0.000000  -28.225447191302663  -1.2543616356353782  13.528711422123482  44.87594186029274  -2.999392694091457  -10.997742436612649  29.68094642842941  19.62470977708628  -5.643589928857491  21.494761720691773  0.000000
0.589  0.000000  0.000000  0.000000  -28.324824118350662  -1.4523423695367073  12.544901735024226  45.49696412809367  -1.9475791115799672  -9.733001895400347  27.904744002279475  20.630469753321105  -4.89768410169538  21.566157015323153  0.000000
